<svg version="1.1" xmlns="http://www.w3.org/2000/svg" viewBox="0 0 990 688" width="990" height="688">
  <!-- svg-source:excalidraw -->
  
  <defs>
    <style class="style-fonts">
      @font-face {
        font-family: "Virgil";
        src: url("https://excalidraw.com/Virgil.woff2");
      }
      @font-face {
        font-family: "Cascadia";
        src: url("https://excalidraw.com/Cascadia.woff2");
      }
    </style>
  </defs>
  <rect x="0" y="0" width="990" height="688" fill="#ffffff"></rect><g stroke-linecap="round" transform="translate(366 245) rotate(0 125.5 67.5)"><path d="M32 0 M32 0 C84.8 -0.62, 136.42 1.13, 219 0 M32 0 C76.29 -1.37, 121.93 -1.6, 219 0 M219 0 C240.56 0.12, 249.24 11.14, 251 32 M219 0 C241.45 -0.91, 251.24 8.78, 251 32 M251 32 C252.7 57.04, 249.36 82.43, 251 103 M251 32 C251.19 56.37, 250.69 80.76, 251 103 M251 103 C249.48 125.11, 242.12 135.66, 219 135 M251 103 C250.32 123.67, 239.46 134.32, 219 135 M219 135 C167.99 134.94, 112.35 136.71, 32 135 M219 135 C170.96 136.39, 121.45 135.09, 32 135 M32 135 C12.63 134.29, -0.79 126.25, 0 103 M32 135 C8.46 133.12, 0.33 126.07, 0 103 M0 103 C-2.07 83.08, 1.37 64.32, 0 32 M0 103 C1.28 81.58, 0.09 61.63, 0 32 M0 32 C-0.16 10.64, 9.24 -0.96, 32 0 M0 32 C-0.94 8.43, 9.47 -1.54, 32 0" stroke="#000000" stroke-width="1" fill="none"></path></g><g stroke-linecap="round" transform="translate(10 244) rotate(0 125.5 67.5)"><path d="M32 0 M32 0 C71.83 -2.3, 110 -0.19, 219 0 M32 0 C93.06 0.07, 154.6 0.08, 219 0 M219 0 C240.94 1.01, 251.87 12.24, 251 32 M219 0 C240.5 1.71, 252.83 12.44, 251 32 M251 32 C251.59 57.1, 251.23 80.17, 251 103 M251 32 C250.42 56.26, 249.81 79.43, 251 103 M251 103 C249.09 122.61, 239.91 133.36, 219 135 M251 103 C249.42 123.27, 241.98 134.76, 219 135 M219 135 C153.35 135.7, 87.02 136.74, 32 135 M219 135 C167.78 135.47, 115.33 135.9, 32 135 M32 135 C8.7 134.75, 1.65 126.24, 0 103 M32 135 C8.43 134.02, -1.45 123.42, 0 103 M0 103 C-1.65 78.01, 0.55 54.69, 0 32 M0 103 C-0.09 84.7, -0.15 68.34, 0 32 M0 32 C-1 10.55, 11.54 0.03, 32 0 M0 32 C0.21 8.59, 10.63 0.2, 32 0" stroke="#000000" stroke-width="1" fill="none"></path></g><g stroke-linecap="round" transform="translate(729 247) rotate(0 125.5 67.5)"><path d="M32 0 M32 0 C92.33 -1.35, 154.96 0.41, 219 0 M32 0 C85.3 -0.21, 139.25 -0.97, 219 0 M219 0 C238.78 0.3, 250.9 8.87, 251 32 M219 0 C240.05 0.05, 249.53 9.6, 251 32 M251 32 C250.93 56.6, 251.3 79.08, 251 103 M251 32 C249.88 50.08, 251.15 67.12, 251 103 M251 103 C251.07 123.91, 242.31 135.43, 219 135 M251 103 C249.3 124.87, 242.38 137.25, 219 135 M219 135 C161.14 135.54, 105.71 135.76, 32 135 M219 135 C167.99 136.84, 118.56 136.61, 32 135 M32 135 C10.19 135.14, -1.6 122.75, 0 103 M32 135 C12.53 137.06, -1.91 124.12, 0 103 M0 103 C-0.2 82.64, 0.55 64.79, 0 32 M0 103 C0.53 75.63, -0.1 50.93, 0 32 M0 32 C-1.1 10.4, 10.1 -0.88, 32 0 M0 32 C-1.49 11.75, 11.48 0.34, 32 0" stroke="#000000" stroke-width="1" fill="none"></path></g><g stroke-linecap="round" transform="translate(248 541) rotate(0 125.5 67.5)"><path d="M32 0 M32 0 C77.05 1.14, 122.09 2.22, 219 0 M32 0 C93.57 0.02, 154.21 -1.21, 219 0 M219 0 C238.56 0.22, 252.01 11.84, 251 32 M219 0 C238.24 -2.01, 253.02 10.82, 251 32 M251 32 C250.07 58.23, 251.89 84.02, 251 103 M251 32 C250.18 58.64, 250.42 83.34, 251 103 M251 103 C249.95 123.74, 240.24 133.65, 219 135 M251 103 C252.45 126.32, 242.5 133.7, 219 135 M219 135 C168.83 136.7, 119.93 138.47, 32 135 M219 135 C156.57 135.57, 94.72 135.65, 32 135 M32 135 C9.76 136.65, -1.33 122.8, 0 103 M32 135 C11.38 133.87, 0.44 125.85, 0 103 M0 103 C0.87 76.38, 0.91 52, 0 32 M0 103 C-0.66 79.96, -1.5 56.65, 0 32 M0 32 C1.4 10.94, 10.37 -0.31, 32 0 M0 32 C1.77 10.28, 11.45 0.29, 32 0" stroke="#000000" stroke-width="1" fill="none"></path></g><g stroke-linecap="round" transform="translate(525 543) rotate(0 125.5 67.5)"><path d="M32 0 M32 0 C80.92 1.03, 130.97 -1.01, 219 0 M32 0 C96.84 1.15, 163.4 1.47, 219 0 M219 0 C241.32 0.93, 249.57 10.29, 251 32 M219 0 C241.54 1.2, 251.47 11.16, 251 32 M251 32 C249.11 48.75, 253.06 62.92, 251 103 M251 32 C250.76 50, 251.17 66.02, 251 103 M251 103 C251.08 125.09, 240.96 137, 219 135 M251 103 C251.24 123.63, 238.48 132.98, 219 135 M219 135 C171.7 132.56, 123.48 135.52, 32 135 M219 135 C172.32 136.87, 123.71 137.37, 32 135 M32 135 C12.37 134.33, 1.31 124.04, 0 103 M32 135 C11 136.55, -0.01 125.94, 0 103 M0 103 C2.31 79.56, 0.83 53.17, 0 32 M0 103 C-0.15 77.53, -0.61 53.35, 0 32 M0 32 C-1.88 9.77, 11.29 0.1, 32 0 M0 32 C2.03 8.84, 9.43 0.91, 32 0" stroke="#000000" stroke-width="1" fill="none"></path></g><g transform="translate(388 248) rotate(0 76.5 65)"><text x="0" y="18" font-family="Virgil, Segoe UI Emoji" font-size="20px" fill="#000000" text-anchor="start" style="white-space: pre;" direction="ltr">MathOperation</text><text x="0" y="44" font-family="Virgil, Segoe UI Emoji" font-size="20px" fill="#000000" text-anchor="start" style="white-space: pre;" direction="ltr">+SIGN</text><text x="0" y="70" font-family="Virgil, Segoe UI Emoji" font-size="20px" fill="#000000" text-anchor="start" style="white-space: pre;" direction="ltr"></text><text x="0" y="96" font-family="Virgil, Segoe UI Emoji" font-size="20px" fill="#000000" text-anchor="start" style="white-space: pre;" direction="ltr">+solve(op1, op2)</text><text x="0" y="122" font-family="Virgil, Segoe UI Emoji" font-size="20px" fill="#000000" text-anchor="start" style="white-space: pre;" direction="ltr"></text></g><g transform="translate(32 248) rotate(0 76.5 65)"><text x="0" y="18" font-family="Virgil, Segoe UI Emoji" font-size="20px" fill="#000000" text-anchor="start" style="white-space: pre;" direction="ltr">Sum</text><text x="0" y="44" font-family="Virgil, Segoe UI Emoji" font-size="20px" fill="#000000" text-anchor="start" style="white-space: pre;" direction="ltr">+SIGN</text><text x="0" y="70" font-family="Virgil, Segoe UI Emoji" font-size="20px" fill="#000000" text-anchor="start" style="white-space: pre;" direction="ltr"></text><text x="0" y="96" font-family="Virgil, Segoe UI Emoji" font-size="20px" fill="#000000" text-anchor="start" style="white-space: pre;" direction="ltr">+solve(op1, op2)</text><text x="0" y="122" font-family="Virgil, Segoe UI Emoji" font-size="20px" fill="#000000" text-anchor="start" style="white-space: pre;" direction="ltr"></text></g><g transform="translate(751 251) rotate(0 76.5 65)"><text x="0" y="18" font-family="Virgil, Segoe UI Emoji" font-size="20px" fill="#000000" text-anchor="start" style="white-space: pre;" direction="ltr">Subtraction</text><text x="0" y="44" font-family="Virgil, Segoe UI Emoji" font-size="20px" fill="#000000" text-anchor="start" style="white-space: pre;" direction="ltr">+SIGN</text><text x="0" y="70" font-family="Virgil, Segoe UI Emoji" font-size="20px" fill="#000000" text-anchor="start" style="white-space: pre;" direction="ltr"></text><text x="0" y="96" font-family="Virgil, Segoe UI Emoji" font-size="20px" fill="#000000" text-anchor="start" style="white-space: pre;" direction="ltr">+solve(op1, op2)</text><text x="0" y="122" font-family="Virgil, Segoe UI Emoji" font-size="20px" fill="#000000" text-anchor="start" style="white-space: pre;" direction="ltr"></text></g><g transform="translate(270 545) rotate(0 76.5 65)"><text x="0" y="18" font-family="Virgil, Segoe UI Emoji" font-size="20px" fill="#000000" text-anchor="start" style="white-space: pre;" direction="ltr">Multiplication</text><text x="0" y="44" font-family="Virgil, Segoe UI Emoji" font-size="20px" fill="#000000" text-anchor="start" style="white-space: pre;" direction="ltr">+SIGN</text><text x="0" y="70" font-family="Virgil, Segoe UI Emoji" font-size="20px" fill="#000000" text-anchor="start" style="white-space: pre;" direction="ltr"></text><text x="0" y="96" font-family="Virgil, Segoe UI Emoji" font-size="20px" fill="#000000" text-anchor="start" style="white-space: pre;" direction="ltr">+solve(op1, op2)</text><text x="0" y="122" font-family="Virgil, Segoe UI Emoji" font-size="20px" fill="#000000" text-anchor="start" style="white-space: pre;" direction="ltr"></text></g><g transform="translate(547 547) rotate(0 76.5 65)"><text x="0" y="18" font-family="Virgil, Segoe UI Emoji" font-size="20px" fill="#000000" text-anchor="start" style="white-space: pre;" direction="ltr">Division</text><text x="0" y="44" font-family="Virgil, Segoe UI Emoji" font-size="20px" fill="#000000" text-anchor="start" style="white-space: pre;" direction="ltr">+SIGN</text><text x="0" y="70" font-family="Virgil, Segoe UI Emoji" font-size="20px" fill="#000000" text-anchor="start" style="white-space: pre;" direction="ltr"></text><text x="0" y="96" font-family="Virgil, Segoe UI Emoji" font-size="20px" fill="#000000" text-anchor="start" style="white-space: pre;" direction="ltr">+solve(op1, op2)</text><text x="0" y="122" font-family="Virgil, Segoe UI Emoji" font-size="20px" fill="#000000" text-anchor="start" style="white-space: pre;" direction="ltr"></text></g><g stroke-linecap="round"><g transform="translate(382 318) rotate(0 114.6853219614411 0.022153300373190632)"><path d="M1.03 -1.03 C39.32 -1, 191.13 -1.02, 229.25 -0.91 M0.12 1.04 C38.3 1.3, 190.22 0.2, 228.44 0.16" stroke="#000000" stroke-width="1" fill="none"></path></g></g><mask></mask><g stroke-linecap="round"><g transform="translate(26 317) rotate(0 114.12949924021962 -0.6420254387904265)"><path d="M-1.01 0.38 C37.14 0.32, 191.06 0.41, 229.26 0.33 M0.67 -0.46 C38.64 -0.96, 190.11 -1.9, 228.46 -1.62" stroke="#000000" stroke-width="1" fill="none"></path></g></g><mask></mask><g stroke-linecap="round"><g transform="translate(745 320) rotate(0 114.62760055512183 -0.04933500607498331)"><path d="M-0.4 -0.2 C37.8 -0.1, 191.48 -0.27, 229.65 -0.19 M1.59 -1.35 C39.66 -0.99, 191.36 0.73, 229.05 1.25" stroke="#000000" stroke-width="1" fill="none"></path></g></g><mask></mask><g stroke-linecap="round"><g transform="translate(264 614) rotate(0 114.04774989406116 0.060077885789780794)"><path d="M-0.04 -0.57 C38.36 -0.47, 191.47 0.21, 229.61 0.33 M-1.52 1.74 C36.84 1.49, 190.74 -1.59, 228.99 -1.62" stroke="#000000" stroke-width="1" fill="none"></path></g></g><mask></mask><g stroke-linecap="round"><g transform="translate(541 616) rotate(0 114.47513611239384 0.275281361667453)"><path d="M0.19 -0.55 C38.26 -0.35, 189.76 0.59, 227.96 0.59 M-1.18 1.77 C37.3 1.68, 191.79 -1.01, 230.13 -1.22" stroke="#000000" stroke-width="1" fill="none"></path></g></g><mask></mask><g stroke-linecap="round" transform="translate(351 10) rotate(0 137.5 61.5)"><path d="M30.75 0 M30.75 0 C94.05 -0.55, 159.59 -1.82, 244.25 0 M30.75 0 C99.87 -0.06, 167.98 0.69, 244.25 0 M244.25 0 C263.93 -1.45, 274.59 9.79, 275 30.75 M244.25 0 C264.02 1.34, 276.51 12.35, 275 30.75 M275 30.75 C276.35 49.85, 275.95 71.72, 275 92.25 M275 30.75 C275.07 55.04, 274.57 78.95, 275 92.25 M275 92.25 C275.41 112.51, 266.45 123.17, 244.25 123 M275 92.25 C274.95 111.41, 266.86 121.5, 244.25 123 M244.25 123 C182.06 123.04, 120.91 121.49, 30.75 123 M244.25 123 C179.72 123.31, 116.14 123.72, 30.75 123 M30.75 123 C11.68 123.28, -1.43 114.11, 0 92.25 M30.75 123 C11.68 122.43, 1.92 113.24, 0 92.25 M0 92.25 C0.41 76.04, -1.49 62.56, 0 30.75 M0 92.25 C1.25 67.55, -0.51 44.11, 0 30.75 M0 30.75 C1.8 8.34, 8.68 1.83, 30.75 0 M0 30.75 C-0.75 9.52, 10.39 1.68, 30.75 0" stroke="#000000" stroke-width="1" fill="none"></path></g><g transform="translate(367 24) rotate(0 123 39)"><text x="0" y="18" font-family="Virgil, Segoe UI Emoji" font-size="20px" fill="#000000" text-anchor="start" style="white-space: pre;" direction="ltr">Calculator</text><text x="0" y="44" font-family="Virgil, Segoe UI Emoji" font-size="20px" fill="#000000" text-anchor="start" style="white-space: pre;" direction="ltr"></text><text x="0" y="70" font-family="Virgil, Segoe UI Emoji" font-size="20px" fill="#000000" text-anchor="start" style="white-space: pre;" direction="ltr">+calculate(op1, op2, sign)</text></g><g stroke-linecap="round" transform="translate(475 137) rotate(0 13 12.5)"><path d="M1.03 12.82 C1.03 12.82, 1.03 12.82, 1.03 12.82 M1.03 12.82 C1.03 12.82, 1.03 12.82, 1.03 12.82 M4.05 15.45 C6.21 12.5, 10.13 6.09, 15.86 1.86 M4.05 15.45 C6.73 11.11, 10.48 6.51, 15.86 1.86 M7.07 18.07 C10.2 12.44, 16.88 10.1, 18.88 4.48 M7.07 18.07 C10 14.67, 12.13 13.17, 18.88 4.48 M10.09 20.69 C12.76 17.84, 15.19 12.43, 21.24 7.86 M10.09 20.69 C13.9 15.76, 18.16 10.75, 21.24 7.86 M13.11 23.32 C15.02 21.08, 16.52 17.91, 23.6 11.24 M13.11 23.32 C15.4 19.7, 18.38 16.34, 23.6 11.24" stroke="#868e96" stroke-width="0.5" fill="none"></path><path d="M17.5 3.25 M17.5 3.25 C19.87 6.47, 21.56 8.7, 22.5 9.75 M17.5 3.25 C18.45 4.68, 20.11 6.83, 22.5 9.75 M22.5 9.75 C26.06 12.04, 26.77 13.95, 22.5 16.25 M22.5 9.75 C26.65 11.95, 26.2 14.95, 22.5 16.25 M22.5 16.25 C20.95 16.94, 19.77 18.27, 17.5 21.75 M22.5 16.25 C20.97 18.37, 19.24 20.45, 17.5 21.75 M17.5 21.75 C14.46 24.28, 13.17 26.58, 10.5 21.75 M17.5 21.75 C12.5 26.39, 14.95 23.84, 10.5 21.75 M10.5 21.75 C8.39 19.6, 6.24 17.59, 3.5 16.25 M10.5 21.75 C8.68 20.02, 6.45 18.85, 3.5 16.25 M3.5 16.25 C1.17 14.1, -0.16 11.29, 3.5 9.75 M3.5 16.25 C-0.28 14.24, 2.25 13.74, 3.5 9.75 M3.5 9.75 C5.63 8.41, 7.52 5.82, 10.5 3.25 M3.5 9.75 C6.32 7.24, 8.48 5, 10.5 3.25 M10.5 3.25 C12.41 0.27, 14.25 -1.79, 17.5 3.25 M10.5 3.25 C13.03 0.56, 16.01 -1.89, 17.5 3.25" stroke="#000000" stroke-width="1" fill="none"></path></g><g stroke-linecap="round"><g transform="translate(487 158) rotate(0 0.5423865066243252 40.07727445046416)"><path d="M1.1 0.86 C1.29 14.13, 0.96 65.83, 0.59 78.92 M0.22 0.26 C0.35 13.71, -0.2 66.54, -0.04 79.89" stroke="#000000" stroke-width="1" fill="none"></path></g></g><mask></mask><g stroke-linecap="round"><g transform="translate(368 58) rotate(0 119.81194235185632 -0.20910429558064436)"><path d="M0.47 -0.3 C40.56 0.08, 200.41 1.15, 240.37 1.08 M-0.75 -1.5 C39.24 -1.34, 199.56 -0.76, 239.62 -0.47" stroke="#000000" stroke-width="1" fill="none"></path></g></g><mask></mask><g stroke-linecap="round"><g transform="translate(728 307) rotate(0 -52.82842863763676 0.6954377533262743)"><path d="M-0.91 0.79 C-18.71 0.92, -88.21 0.05, -106.03 -0.06 M0.82 0.15 C-17.12 0.57, -88.78 1.21, -106.48 1.45" stroke="#000000" stroke-width="1" fill="none"></path></g><g transform="translate(728 307) rotate(0 -52.82842863763676 0.6954377533262743)"><path d="M-77.09 -7.51 C-88.8 -6.86, -98.65 -1.11, -107.95 2.52 M-77.72 -9.85 C-88.3 -5.01, -98.8 -0.88, -107.41 0.82" stroke="#000000" stroke-width="1" fill="none"></path></g><g transform="translate(728 307) rotate(0 -52.82842863763676 0.6954377533262743)"><path d="M-76.86 13.01 C-88.5 6.19, -98.43 4.47, -107.95 2.52 M-77.49 10.67 C-88.21 8.21, -98.79 5.02, -107.41 0.82" stroke="#000000" stroke-width="1" fill="none"></path></g></g><mask></mask><g stroke-linecap="round"><g transform="translate(267 307.00000000101784) rotate(0 50.78514593760019 -0.861451433760692)"><path d="M0.63 -0.31 C17.79 -0.34, 85.01 -1.09, 102.07 -1.14 M-0.5 -1.52 C16.58 -1.35, 83.95 -0.53, 101.16 -0.2" stroke="#000000" stroke-width="1" fill="none"></path></g><g transform="translate(267 307.00000000101784) rotate(0 50.78514593760019 -0.861451433760692)"><path d="M72.31 9.76 C77.43 8.93, 84.77 6.15, 99.82 -1.07 M71.98 10.49 C83.56 6.93, 93.63 3.22, 101 0.01" stroke="#000000" stroke-width="1" fill="none"></path></g><g transform="translate(267 307.00000000101784) rotate(0 50.78514593760019 -0.861451433760692)"><path d="M72.61 -10.76 C77.5 -6.93, 84.77 -5.06, 99.82 -1.07 M72.29 -10.03 C83.9 -6.08, 93.85 -2.28, 101 0.01" stroke="#000000" stroke-width="1" fill="none"></path></g></g><mask></mask><g stroke-linecap="round"><g transform="translate(441 542) rotate(0 0.2842153134579348 -79.05316766964734)"><path d="M1.01 0.34 C1.01 -25.85, 0.69 -130.32, 0.37 -156.9 M0.08 -0.53 C-0.08 -27.04, -0.62 -132.13, -0.38 -158.45" stroke="#000000" stroke-width="1" fill="none"></path></g><g transform="translate(441 542) rotate(0 0.2842153134579348 -79.05316766964734)"><path d="M10.42 -129.63 C8.25 -141, 1.1 -147.48, -1.08 -158.47 M8.94 -130.04 C7.02 -138.12, 4.14 -147.31, -1.36 -158.65" stroke="#000000" stroke-width="1" fill="none"></path></g><g transform="translate(441 542) rotate(0 0.2842153134579348 -79.05316766964734)"><path d="M-10.1 -129.64 C-5.48 -141.18, -5.85 -147.65, -1.08 -158.47 M-11.58 -130.06 C-7.4 -138.04, -4.17 -147.22, -1.36 -158.65" stroke="#000000" stroke-width="1" fill="none"></path></g></g><mask></mask><g stroke-linecap="round"><g transform="translate(547 544) rotate(0 -0.4520849056821703 -78.55665103942158)"><path d="M-1.07 0.59 C-1.01 -25.68, -0.64 -131.42, -0.34 -157.7 M0.56 -0.15 C0.51 -26.26, -1.43 -130.59, -1.47 -156.53" stroke="#000000" stroke-width="1" fill="none"></path></g><g transform="translate(547 544) rotate(0 -0.4520849056821703 -78.55665103942158)"><path d="M10.08 -129.02 C5.46 -133.98, 4.02 -140.1, -1.25 -157.63 M9.9 -129.25 C5.17 -137.6, 2.66 -147.33, -1.17 -156.81" stroke="#000000" stroke-width="1" fill="none"></path></g><g transform="translate(547 544) rotate(0 -0.4520849056821703 -78.55665103942158)"><path d="M-10.44 -128.79 C-10.19 -133.63, -6.76 -139.79, -1.25 -157.63 M-10.62 -129.03 C-8.09 -137.53, -3.34 -147.35, -1.17 -156.81" stroke="#000000" stroke-width="1" fill="none"></path></g></g><mask></mask></svg>